<mxfile host="app.diagrams.net" modified="2022-04-21T10:03:30.574Z" agent="5.0 (Windows NT 10.0; Win64; x64) AppleWebKit/537.36 (KHTML, like Gecko) Chrome/99.0.4844.82 Safari/537.36" etag="RS8hiW-jNq5dzICWo4oK" version="17.4.5" type="github" pages="2">
  <diagram id="TbiD-q-UGumEZRIeGAm7" name="赋强现有思路">
    <mxGraphModel dx="1422" dy="762" grid="1" gridSize="10" guides="1" tooltips="1" connect="1" arrows="1" fold="1" page="1" pageScale="1" pageWidth="1600" pageHeight="900" background="#F1FAEE" math="0" shadow="0">
      <root>
        <mxCell id="0" />
        <mxCell id="1" parent="0" />
        <mxCell id="SZ3cnazm3X6QkwhJVz3c-4" value="" style="ellipse;whiteSpace=wrap;html=1;aspect=fixed;fillColor=#00CCCC;fontColor=#FFFFFF;strokeColor=none;fontStyle=1;fontSize=18;" vertex="1" parent="1">
          <mxGeometry x="790" y="350" width="160" height="160" as="geometry" />
        </mxCell>
        <mxCell id="SZ3cnazm3X6QkwhJVz3c-5" value="深安平台" style="ellipse;whiteSpace=wrap;html=1;aspect=fixed;fillColor=#007FFF;fontColor=#F1FAEE;strokeColor=none;fontStyle=1;fontSize=18;" vertex="1" parent="1">
          <mxGeometry x="600" y="110" width="160" height="160" as="geometry" />
        </mxCell>
        <mxCell id="SZ3cnazm3X6QkwhJVz3c-6" value="银行" style="ellipse;whiteSpace=wrap;html=1;aspect=fixed;fillColor=#00CCCC;fontColor=#FFFFFF;strokeColor=none;fontStyle=1;fontSize=18;strokeWidth=0;gradientColor=none;shadow=0;sketch=0;" vertex="1" parent="1">
          <mxGeometry x="440" y="350" width="160" height="160" as="geometry" />
        </mxCell>
        <mxCell id="SZ3cnazm3X6QkwhJVz3c-10" value="" style="curved=1;endArrow=classic;html=1;fontSize=18;fontColor=#FFFFFF;entryX=0.5;entryY=0;entryDx=0;entryDy=0;exitX=0.008;exitY=0.4;exitDx=0;exitDy=0;exitPerimeter=0;" edge="1" parent="1" source="SZ3cnazm3X6QkwhJVz3c-5" target="SZ3cnazm3X6QkwhJVz3c-6">
          <mxGeometry width="50" height="50" relative="1" as="geometry">
            <mxPoint x="620" y="220" as="sourcePoint" />
            <mxPoint x="540" y="190" as="targetPoint" />
            <Array as="points">
              <mxPoint x="520" y="230" />
            </Array>
          </mxGeometry>
        </mxCell>
        <mxCell id="SZ3cnazm3X6QkwhJVz3c-11" value="" style="curved=1;endArrow=classic;html=1;fontSize=18;fontColor=#FFFFFF;entryX=0;entryY=0.625;entryDx=0;entryDy=0;entryPerimeter=0;exitX=0.708;exitY=0.05;exitDx=0;exitDy=0;exitPerimeter=0;" edge="1" parent="1" source="SZ3cnazm3X6QkwhJVz3c-6" target="SZ3cnazm3X6QkwhJVz3c-5">
          <mxGeometry width="50" height="50" relative="1" as="geometry">
            <mxPoint x="580" y="340" as="sourcePoint" />
            <mxPoint x="630" y="290" as="targetPoint" />
            <Array as="points">
              <mxPoint x="550" y="310" />
              <mxPoint x="560" y="260" />
            </Array>
          </mxGeometry>
        </mxCell>
        <mxCell id="SZ3cnazm3X6QkwhJVz3c-12" value="签署" style="ellipse;whiteSpace=wrap;html=1;aspect=fixed;shadow=0;sketch=0;fontSize=18;fontColor=#FFFFFF;strokeColor=default;strokeWidth=0;fillColor=#007FFF;gradientColor=none;" vertex="1" parent="1">
          <mxGeometry x="540" y="90" width="60" height="60" as="geometry" />
        </mxCell>
        <mxCell id="SZ3cnazm3X6QkwhJVz3c-13" value="视频" style="ellipse;whiteSpace=wrap;html=1;aspect=fixed;shadow=0;sketch=0;fontSize=18;fontColor=#FFFFFF;strokeColor=default;strokeWidth=0;fillColor=#007FFF;gradientColor=none;" vertex="1" parent="1">
          <mxGeometry x="600" y="50" width="60" height="60" as="geometry" />
        </mxCell>
        <mxCell id="SZ3cnazm3X6QkwhJVz3c-14" value="CA" style="ellipse;whiteSpace=wrap;html=1;aspect=fixed;shadow=0;sketch=0;fontSize=18;fontColor=#FFFFFF;strokeColor=default;strokeWidth=0;fillColor=#007FFF;gradientColor=none;" vertex="1" parent="1">
          <mxGeometry x="710" y="50" width="60" height="60" as="geometry" />
        </mxCell>
        <mxCell id="SZ3cnazm3X6QkwhJVz3c-15" value="公证书" style="ellipse;whiteSpace=wrap;html=1;aspect=fixed;shadow=0;sketch=0;fontSize=18;fontColor=#FFFFFF;strokeColor=default;strokeWidth=0;fillColor=#007FFF;gradientColor=none;" vertex="1" parent="1">
          <mxGeometry x="770" y="100" width="60" height="60" as="geometry" />
        </mxCell>
        <mxCell id="SZ3cnazm3X6QkwhJVz3c-16" value="" style="curved=1;endArrow=classic;html=1;fontFamily=Helvetica;fontSize=18;fontColor=#FFFFFF;align=center;strokeColor=default;" edge="1" parent="1" source="SZ3cnazm3X6QkwhJVz3c-6" target="SZ3cnazm3X6QkwhJVz3c-4">
          <mxGeometry width="50" height="50" relative="1" as="geometry">
            <mxPoint x="600" y="480" as="sourcePoint" />
            <mxPoint x="790" y="520" as="targetPoint" />
            <Array as="points">
              <mxPoint x="690" y="560" />
            </Array>
          </mxGeometry>
        </mxCell>
        <mxCell id="SZ3cnazm3X6QkwhJVz3c-17" value="" style="curved=1;endArrow=classic;html=1;fontSize=18;fontColor=#FFFFFF;entryX=0.706;entryY=0.956;entryDx=0;entryDy=0;entryPerimeter=0;exitX=0.194;exitY=0.919;exitDx=0;exitDy=0;exitPerimeter=0;" edge="1" parent="1" source="SZ3cnazm3X6QkwhJVz3c-4" target="SZ3cnazm3X6QkwhJVz3c-6">
          <mxGeometry width="50" height="50" relative="1" as="geometry">
            <mxPoint x="640" y="650" as="sourcePoint" />
            <mxPoint x="690" y="600" as="targetPoint" />
            <Array as="points">
              <mxPoint x="790" y="540" />
              <mxPoint x="660" y="570" />
            </Array>
          </mxGeometry>
        </mxCell>
        <mxCell id="SZ3cnazm3X6QkwhJVz3c-18" value="" style="curved=1;endArrow=classic;html=1;fontSize=18;fontColor=#FFFFFF;" edge="1" parent="1" target="SZ3cnazm3X6QkwhJVz3c-5">
          <mxGeometry width="50" height="50" relative="1" as="geometry">
            <mxPoint x="850" y="350" as="sourcePoint" />
            <mxPoint x="900" y="230" as="targetPoint" />
            <Array as="points">
              <mxPoint x="850" y="230" />
            </Array>
          </mxGeometry>
        </mxCell>
        <mxCell id="SZ3cnazm3X6QkwhJVz3c-19" value="" style="curved=1;endArrow=classic;html=1;fontSize=18;fontColor=#FFFFFF;exitX=1;exitY=0.375;exitDx=0;exitDy=0;exitPerimeter=0;entryX=0.606;entryY=-0.006;entryDx=0;entryDy=0;entryPerimeter=0;" edge="1" parent="1" source="SZ3cnazm3X6QkwhJVz3c-5" target="SZ3cnazm3X6QkwhJVz3c-4">
          <mxGeometry width="50" height="50" relative="1" as="geometry">
            <mxPoint x="920" y="270" as="sourcePoint" />
            <mxPoint x="890" y="350" as="targetPoint" />
            <Array as="points">
              <mxPoint x="820" y="190" />
              <mxPoint x="870" y="250" />
            </Array>
          </mxGeometry>
        </mxCell>
        <mxCell id="SZ3cnazm3X6QkwhJVz3c-20" value="公证&lt;br&gt;流程" style="ellipse;whiteSpace=wrap;html=1;aspect=fixed;shadow=0;sketch=0;fontSize=18;fontColor=#FFFFFF;strokeColor=default;strokeWidth=0;fillColor=#007FFF;gradientColor=none;" vertex="1" parent="1">
          <mxGeometry x="880" y="400" width="60" height="60" as="geometry" />
        </mxCell>
        <mxCell id="SZ3cnazm3X6QkwhJVz3c-21" value="&lt;span style=&quot;font-weight: 700&quot;&gt;公证处&lt;/span&gt;" style="text;html=1;strokeColor=none;fillColor=none;align=center;verticalAlign=middle;whiteSpace=wrap;rounded=0;shadow=0;sketch=0;fontSize=18;fontColor=#FFFFFF;" vertex="1" parent="1">
          <mxGeometry x="790" y="415" width="60" height="30" as="geometry" />
        </mxCell>
        <mxCell id="SZ3cnazm3X6QkwhJVz3c-24" value="" style="shape=step;perimeter=stepPerimeter;whiteSpace=wrap;html=1;fixedSize=1;shadow=0;sketch=0;fontSize=18;strokeWidth=1;direction=west;size=20;strokeColor=#007FFF;" vertex="1" parent="1">
          <mxGeometry x="970" y="370" width="220" height="110" as="geometry" />
        </mxCell>
        <mxCell id="SZ3cnazm3X6QkwhJVz3c-26" value="委托" style="rounded=1;whiteSpace=wrap;html=1;shadow=0;sketch=0;fontSize=18;fontColor=#FFFFFF;strokeColor=default;strokeWidth=0;fillColor=#007FFF;gradientColor=none;" vertex="1" parent="1">
          <mxGeometry x="1090" y="440" width="70" height="30" as="geometry" />
        </mxCell>
        <mxCell id="SZ3cnazm3X6QkwhJVz3c-27" value="受理" style="rounded=1;whiteSpace=wrap;html=1;shadow=0;sketch=0;fontSize=18;fontColor=#FFFFFF;strokeColor=default;strokeWidth=0;fillColor=#007FFF;gradientColor=none;" vertex="1" parent="1">
          <mxGeometry x="1000" y="440" width="70" height="30" as="geometry" />
        </mxCell>
        <mxCell id="SZ3cnazm3X6QkwhJVz3c-28" value="问询" style="rounded=1;whiteSpace=wrap;html=1;shadow=0;sketch=0;fontSize=18;fontColor=#FFFFFF;strokeColor=default;strokeWidth=0;fillColor=#007FFF;gradientColor=none;" vertex="1" parent="1">
          <mxGeometry x="1090" y="385" width="70" height="30" as="geometry" />
        </mxCell>
        <mxCell id="SZ3cnazm3X6QkwhJVz3c-29" value="申请" style="rounded=1;whiteSpace=wrap;html=1;shadow=0;sketch=0;fontSize=18;fontColor=#FFFFFF;strokeColor=default;strokeWidth=0;fillColor=#007FFF;gradientColor=none;" vertex="1" parent="1">
          <mxGeometry x="1000" y="385" width="70" height="30" as="geometry" />
        </mxCell>
        <mxCell id="SZ3cnazm3X6QkwhJVz3c-30" value="用户&lt;br&gt;信息" style="ellipse;whiteSpace=wrap;html=1;aspect=fixed;shadow=0;sketch=0;fontSize=18;fontColor=#FFFFFF;strokeColor=default;strokeWidth=0;fillColor=#00CCCC;gradientColor=none;" vertex="1" parent="1">
          <mxGeometry x="590" y="340" width="60" height="60" as="geometry" />
        </mxCell>
        <mxCell id="SZ3cnazm3X6QkwhJVz3c-31" value="公证&lt;br&gt;信息" style="ellipse;whiteSpace=wrap;html=1;aspect=fixed;shadow=0;sketch=0;fontSize=18;fontColor=#FFFFFF;strokeColor=default;strokeWidth=0;fillColor=#00CCCC;gradientColor=none;" vertex="1" parent="1">
          <mxGeometry x="730" y="340" width="60" height="60" as="geometry" />
        </mxCell>
        <mxCell id="SZ3cnazm3X6QkwhJVz3c-32" value="公证员" style="ellipse;whiteSpace=wrap;html=1;aspect=fixed;shadow=0;sketch=0;fontSize=18;fontColor=#FFFFFF;strokeColor=default;strokeWidth=0;fillColor=#00CCCC;gradientColor=none;" vertex="1" parent="1">
          <mxGeometry x="720" y="415" width="60" height="60" as="geometry" />
        </mxCell>
        <mxCell id="SZ3cnazm3X6QkwhJVz3c-34" value="&lt;span style=&quot;color: rgb(77, 77, 77); font-size: 16px;&quot;&gt;RESTful API&lt;/span&gt;" style="text;html=1;strokeColor=none;fillColor=none;align=center;verticalAlign=middle;whiteSpace=wrap;rounded=0;shadow=0;sketch=0;fontSize=18;rotation=-75;labelBackgroundColor=none;" vertex="1" parent="1">
          <mxGeometry x="499.65999999999997" y="280" width="160.34" height="22.59" as="geometry" />
        </mxCell>
        <mxCell id="SZ3cnazm3X6QkwhJVz3c-35" value="&lt;span style=&quot;color: rgb(77, 77, 77); font-size: 16px;&quot;&gt;RESTful API&lt;/span&gt;" style="text;html=1;strokeColor=none;fillColor=none;align=center;verticalAlign=middle;whiteSpace=wrap;rounded=0;shadow=0;sketch=0;fontSize=18;rotation=-75;labelBackgroundColor=none;" vertex="1" parent="1">
          <mxGeometry x="429.65999999999997" y="247.41" width="160.34" height="22.59" as="geometry" />
        </mxCell>
      </root>
    </mxGraphModel>
  </diagram>
  <diagram id="W_DcEgEJa7QvUL6Cg9mv" name="赋强创新思路">
    <mxGraphModel dx="1422" dy="762" grid="1" gridSize="10" guides="1" tooltips="1" connect="1" arrows="1" fold="1" page="1" pageScale="1" pageWidth="1600" pageHeight="900" background="#F1FAEE" math="0" shadow="0">
      <root>
        <mxCell id="0" />
        <mxCell id="1" parent="0" />
        <mxCell id="FC0IcF9SnpDUft-PJ-PU-1" value="&lt;div&gt;&lt;span style=&quot;font-family: &amp;#34;larkhacksafarifont&amp;#34; , &amp;#34;larkemojifont&amp;#34; , &amp;#34;larkchinesequote&amp;#34; , , &amp;#34;blinkmacsystemfont&amp;#34; , &amp;#34;helvetica neue&amp;#34; , &amp;#34;arial&amp;#34; , &amp;#34;segoe ui&amp;#34; , &amp;#34;pingfang sc&amp;#34; , &amp;#34;microsoft yahei&amp;#34; , &amp;#34;hiragino sans gb&amp;#34; , sans-serif , &amp;#34;apple color emoji&amp;#34; , &amp;#34;segoe ui emoji&amp;#34; , &amp;#34;segoe ui symbol&amp;#34; , &amp;#34;noto color emoji&amp;#34;&quot;&gt;&lt;span style=&quot;font-size: 13px&quot;&gt;赋强创新思路&lt;/span&gt;&lt;/span&gt;&lt;/div&gt;" style="swimlane;labelBackgroundColor=none;labelBorderColor=none;fontSize=16;fillColor=#A8DADC;html=1;strokeColor=#457B9D;fontColor=#1D3557;" vertex="1" parent="1">
          <mxGeometry x="20" y="140" width="1280" height="530" as="geometry">
            <mxRectangle x="30" y="160" width="160" height="23" as="alternateBounds" />
          </mxGeometry>
        </mxCell>
        <mxCell id="FC0IcF9SnpDUft-PJ-PU-2" value="" style="shape=ext;double=1;rounded=1;whiteSpace=wrap;html=1;dashed=1;labelBackgroundColor=none;sketch=0;fontSize=14;fontColor=#000000;strokeColor=#457B9D;fillColor=none;" vertex="1" parent="FC0IcF9SnpDUft-PJ-PU-1">
          <mxGeometry x="900" y="350" width="370" height="120" as="geometry" />
        </mxCell>
        <mxCell id="FC0IcF9SnpDUft-PJ-PU-3" value="" style="shape=ext;double=1;rounded=1;whiteSpace=wrap;html=1;dashed=1;labelBackgroundColor=none;sketch=0;fontSize=14;fontColor=#000000;strokeColor=#457B9D;fillColor=none;labelPosition=center;verticalLabelPosition=top;align=center;verticalAlign=bottom;" vertex="1" parent="FC0IcF9SnpDUft-PJ-PU-1">
          <mxGeometry x="330" y="117" width="490" height="283" as="geometry" />
        </mxCell>
        <mxCell id="FC0IcF9SnpDUft-PJ-PU-4" value="" style="shape=ext;double=1;rounded=1;whiteSpace=wrap;html=1;dashed=1;labelBackgroundColor=none;sketch=0;fontSize=14;fontColor=#000000;strokeColor=#457B9D;fillColor=none;" vertex="1" parent="FC0IcF9SnpDUft-PJ-PU-1">
          <mxGeometry x="900" y="100" width="370" height="120" as="geometry" />
        </mxCell>
        <mxCell id="FC0IcF9SnpDUft-PJ-PU-5" value="" style="shape=ext;double=1;rounded=1;whiteSpace=wrap;html=1;dashed=1;labelBackgroundColor=none;sketch=0;fontSize=14;fontColor=#000000;strokeColor=#457B9D;fillColor=none;" vertex="1" parent="FC0IcF9SnpDUft-PJ-PU-1">
          <mxGeometry x="900" y="225" width="370" height="120" as="geometry" />
        </mxCell>
        <mxCell id="FC0IcF9SnpDUft-PJ-PU-6" value="" style="line;strokeWidth=1;direction=south;html=1;strokeColor=#457B9D;dashed=1;labelBackgroundColor=#F1FAEE;fillColor=#A8DADC;fontColor=#1D3557;" vertex="1" parent="FC0IcF9SnpDUft-PJ-PU-1">
          <mxGeometry x="240" y="60" width="10" height="410" as="geometry" />
        </mxCell>
        <mxCell id="FC0IcF9SnpDUft-PJ-PU-7" value="" style="line;strokeWidth=1;direction=south;html=1;strokeColor=#457B9D;dashed=1;labelBackgroundColor=#F1FAEE;fillColor=#A8DADC;fontColor=#1D3557;" vertex="1" parent="FC0IcF9SnpDUft-PJ-PU-1">
          <mxGeometry x="1047" y="60" width="10" height="410" as="geometry" />
        </mxCell>
        <mxCell id="FC0IcF9SnpDUft-PJ-PU-8" value="" style="line;strokeWidth=1;direction=south;html=1;strokeColor=#457B9D;dashed=1;labelBackgroundColor=#F1FAEE;fillColor=#A8DADC;fontColor=#1D3557;" vertex="1" parent="FC0IcF9SnpDUft-PJ-PU-1">
          <mxGeometry x="640" y="60" width="10" height="410" as="geometry" />
        </mxCell>
        <mxCell id="FC0IcF9SnpDUft-PJ-PU-9" value="公证处A数据库" style="aspect=fixed;html=1;points=[];align=center;image;fontSize=12;image=img/lib/azure2/databases/Azure_Database_MySQL_Server.svg;labelBackgroundColor=none;fillColor=#A8DADC;strokeColor=#457B9D;fontColor=#1D3557;" vertex="1" parent="FC0IcF9SnpDUft-PJ-PU-1">
          <mxGeometry x="1058.5" y="117" width="55.5" height="74" as="geometry" />
        </mxCell>
        <mxCell id="FC0IcF9SnpDUft-PJ-PU-10" value="公证处B数据库" style="aspect=fixed;html=1;points=[];align=center;image;fontSize=12;image=img/lib/azure2/databases/Azure_Database_MySQL_Server.svg;labelBackgroundColor=none;fillColor=#A8DADC;strokeColor=#457B9D;fontColor=#1D3557;" vertex="1" parent="FC0IcF9SnpDUft-PJ-PU-1">
          <mxGeometry x="1058.5" y="238" width="55.5" height="74" as="geometry" />
        </mxCell>
        <mxCell id="FC0IcF9SnpDUft-PJ-PU-11" value="&lt;span&gt;平台数据库&lt;/span&gt;" style="aspect=fixed;html=1;points=[];align=center;image;fontSize=12;image=img/lib/azure2/databases/Azure_Database_MySQL_Server.svg;labelBackgroundColor=none;fillColor=#A8DADC;strokeColor=#457B9D;fontColor=#1D3557;" vertex="1" parent="FC0IcF9SnpDUft-PJ-PU-1">
          <mxGeometry x="1058.5" y="360" width="55.5" height="74" as="geometry" />
        </mxCell>
        <mxCell id="FC0IcF9SnpDUft-PJ-PU-12" value="" style="shape=singleArrow;whiteSpace=wrap;html=1;arrowWidth=0.4;arrowSize=0.4;rounded=0;sketch=0;fontColor=#1D3557;strokeColor=#457B9D;fillColor=#457B9D;" vertex="1" parent="FC0IcF9SnpDUft-PJ-PU-1">
          <mxGeometry x="200" y="70" width="110" height="10" as="geometry" />
        </mxCell>
        <mxCell id="FC0IcF9SnpDUft-PJ-PU-13" value="&lt;span style=&quot;font-size: 9px&quot;&gt;客户端&lt;/span&gt;" style="text;html=1;align=center;verticalAlign=middle;resizable=0;points=[];autosize=1;strokeColor=none;fillColor=none;fontColor=#000000;fontStyle=1;fontSize=9;" vertex="1" parent="FC0IcF9SnpDUft-PJ-PU-1">
          <mxGeometry x="125" y="65" width="50" height="20" as="geometry" />
        </mxCell>
        <mxCell id="FC0IcF9SnpDUft-PJ-PU-14" value="&lt;h3 style=&quot;padding: 0px ; margin: 24px 0px 16px ; box-sizing: border-box ; font-size: 1.25em ; line-height: 1.25 ; color: rgb(36 , 41 , 46) ; font-family: , &amp;#34;blinkmacsystemfont&amp;#34; , &amp;#34;segoe ui&amp;#34; , &amp;#34;helvetica&amp;#34; , &amp;#34;arial&amp;#34; , sans-serif , &amp;#34;apple color emoji&amp;#34; , &amp;#34;segoe ui emoji&amp;#34; , &amp;#34;segoe ui symbol&amp;#34;&quot;&gt;数据采集&lt;/h3&gt;" style="whiteSpace=wrap;html=1;rounded=0;sketch=0;fontColor=#1D3557;strokeColor=#457B9D;fillColor=#FFFFFF;labelBackgroundColor=none;" vertex="1" parent="FC0IcF9SnpDUft-PJ-PU-1">
          <mxGeometry x="185" y="30" width="140" height="30" as="geometry" />
        </mxCell>
        <mxCell id="FC0IcF9SnpDUft-PJ-PU-15" value="" style="shape=singleArrow;whiteSpace=wrap;html=1;arrowWidth=0.4;arrowSize=0.4;rounded=0;sketch=0;fontColor=#1D3557;strokeColor=#457B9D;fillColor=#457B9D;" vertex="1" parent="FC0IcF9SnpDUft-PJ-PU-1">
          <mxGeometry x="600" y="70" width="110" height="10" as="geometry" />
        </mxCell>
        <mxCell id="FC0IcF9SnpDUft-PJ-PU-16" value="&lt;h3 style=&quot;padding: 0px ; margin: 24px 0px 16px ; box-sizing: border-box ; font-size: 1.25em ; line-height: 1.25 ; color: rgb(36 , 41 , 46) ; font-family: , &amp;#34;blinkmacsystemfont&amp;#34; , &amp;#34;segoe ui&amp;#34; , &amp;#34;helvetica&amp;#34; , &amp;#34;arial&amp;#34; , sans-serif , &amp;#34;apple color emoji&amp;#34; , &amp;#34;segoe ui emoji&amp;#34; , &amp;#34;segoe ui symbol&amp;#34;&quot;&gt;业务计算&lt;/h3&gt;" style="whiteSpace=wrap;html=1;rounded=0;sketch=0;fontColor=#1D3557;strokeColor=#457B9D;fillColor=#FFFFFF;" vertex="1" parent="FC0IcF9SnpDUft-PJ-PU-1">
          <mxGeometry x="585" y="30" width="140" height="30" as="geometry" />
        </mxCell>
        <mxCell id="FC0IcF9SnpDUft-PJ-PU-17" value="" style="shape=singleArrow;whiteSpace=wrap;html=1;arrowWidth=0.4;arrowSize=0.4;rounded=0;sketch=0;fontColor=#1D3557;strokeColor=#457B9D;fillColor=#457B9D;" vertex="1" parent="FC0IcF9SnpDUft-PJ-PU-1">
          <mxGeometry x="1004" y="70" width="110" height="10" as="geometry" />
        </mxCell>
        <mxCell id="FC0IcF9SnpDUft-PJ-PU-18" value="&lt;h3 style=&quot;padding: 0px ; margin: 24px 0px 16px ; box-sizing: border-box ; font-size: 1.25em ; line-height: 1.25 ; color: rgb(36 , 41 , 46) ; font-family: , &amp;#34;blinkmacsystemfont&amp;#34; , &amp;#34;segoe ui&amp;#34; , &amp;#34;helvetica&amp;#34; , &amp;#34;arial&amp;#34; , sans-serif , &amp;#34;apple color emoji&amp;#34; , &amp;#34;segoe ui emoji&amp;#34; , &amp;#34;segoe ui symbol&amp;#34;&quot;&gt;数据存储&lt;/h3&gt;" style="whiteSpace=wrap;html=1;rounded=0;sketch=0;fontColor=#1D3557;strokeColor=#457B9D;fillColor=#FFFFFF;" vertex="1" parent="FC0IcF9SnpDUft-PJ-PU-1">
          <mxGeometry x="984" y="30" width="140" height="35" as="geometry" />
        </mxCell>
        <mxCell id="FC0IcF9SnpDUft-PJ-PU-19" value="API业务服务" style="aspect=fixed;html=1;points=[];align=center;image;fontSize=12;image=img/lib/azure2/app_services/App_Service_Plans.svg;rounded=0;sketch=0;fontColor=#1D3557;strokeColor=#457B9D;fillColor=#A8DADC;labelBackgroundColor=none;" vertex="1" parent="FC0IcF9SnpDUft-PJ-PU-1">
          <mxGeometry x="417" y="143" width="43" height="43" as="geometry" />
        </mxCell>
        <mxCell id="FC0IcF9SnpDUft-PJ-PU-20" value="平台服务" style="text;html=1;align=center;verticalAlign=middle;resizable=0;points=[];autosize=1;strokeColor=none;fillColor=none;fontColor=#000000;fontStyle=1;fontSize=9;" vertex="1" parent="FC0IcF9SnpDUft-PJ-PU-1">
          <mxGeometry x="415" y="65" width="60" height="20" as="geometry" />
        </mxCell>
        <mxCell id="FC0IcF9SnpDUft-PJ-PU-21" value="&lt;font style=&quot;font-size: 9px&quot;&gt;数据隔离&lt;/font&gt;" style="text;html=1;align=center;verticalAlign=middle;resizable=0;points=[];autosize=1;strokeColor=none;fillColor=none;fontColor=#000000;fontStyle=1;fontSize=9;" vertex="1" parent="FC0IcF9SnpDUft-PJ-PU-1">
          <mxGeometry x="845" y="65" width="60" height="20" as="geometry" />
        </mxCell>
        <mxCell id="FC0IcF9SnpDUft-PJ-PU-22" value="&lt;span style=&quot;font-size: 9px;&quot;&gt;多数据源&lt;/span&gt;" style="text;html=1;align=center;verticalAlign=middle;resizable=0;points=[];autosize=1;strokeColor=none;fillColor=none;fontColor=#000000;fontStyle=1;fontSize=9;" vertex="1" parent="FC0IcF9SnpDUft-PJ-PU-1">
          <mxGeometry x="1195" y="65" width="60" height="20" as="geometry" />
        </mxCell>
        <mxCell id="FC0IcF9SnpDUft-PJ-PU-23" value="" style="edgeStyle=orthogonalEdgeStyle;curved=0;rounded=1;sketch=0;orthogonalLoop=1;jettySize=auto;html=1;fontSize=19;fontColor=#000000;strokeColor=#457B9D;fillColor=#A8DADC;" edge="1" parent="FC0IcF9SnpDUft-PJ-PU-1">
          <mxGeometry relative="1" as="geometry">
            <mxPoint x="770" y="266.5" as="sourcePoint" />
            <mxPoint x="916" y="266.5" as="targetPoint" />
          </mxGeometry>
        </mxCell>
        <mxCell id="FC0IcF9SnpDUft-PJ-PU-24" value="" style="edgeStyle=orthogonalEdgeStyle;curved=0;rounded=1;sketch=0;orthogonalLoop=1;jettySize=auto;html=1;fontSize=19;fontColor=#000000;strokeColor=#457B9D;fillColor=#A8DADC;" edge="1" parent="FC0IcF9SnpDUft-PJ-PU-1">
          <mxGeometry relative="1" as="geometry">
            <mxPoint x="778" y="375" as="sourcePoint" />
            <mxPoint x="924" y="375" as="targetPoint" />
          </mxGeometry>
        </mxCell>
        <mxCell id="FC0IcF9SnpDUft-PJ-PU-25" value="&lt;span style=&quot;color: rgb(29 , 53 , 87) ; background-color: rgb(248 , 249 , 250)&quot;&gt;银行&lt;/span&gt;" style="aspect=fixed;html=1;points=[];align=center;image;fontSize=12;image=img/lib/azure2/networking/IP_Groups.svg;rounded=0;sketch=0;fontColor=#000000;strokeColor=#457B9D;fillColor=none;" vertex="1" parent="FC0IcF9SnpDUft-PJ-PU-1">
          <mxGeometry x="60" y="162.5" width="96.64" height="75" as="geometry" />
        </mxCell>
        <mxCell id="FC0IcF9SnpDUft-PJ-PU-26" value="" style="edgeStyle=orthogonalEdgeStyle;curved=0;rounded=1;sketch=0;orthogonalLoop=1;jettySize=auto;html=1;fontSize=19;fontColor=#000000;strokeColor=#457B9D;fillColor=#A8DADC;" edge="1" parent="FC0IcF9SnpDUft-PJ-PU-1">
          <mxGeometry relative="1" as="geometry">
            <mxPoint x="175" y="207" as="sourcePoint" />
            <mxPoint x="350" y="207" as="targetPoint" />
          </mxGeometry>
        </mxCell>
        <mxCell id="FC0IcF9SnpDUft-PJ-PU-27" value="&lt;span style=&quot;color: rgb(29 , 53 , 87) ; background-color: rgb(248 , 249 , 250)&quot;&gt;小程序&lt;/span&gt;" style="aspect=fixed;html=1;points=[];align=center;image;fontSize=12;image=img/lib/azure2/networking/IP_Groups.svg;rounded=0;sketch=0;fontColor=#000000;strokeColor=#457B9D;fillColor=none;" vertex="1" parent="FC0IcF9SnpDUft-PJ-PU-1">
          <mxGeometry x="60" y="292.5" width="96.64" height="75" as="geometry" />
        </mxCell>
        <mxCell id="FC0IcF9SnpDUft-PJ-PU-28" value="" style="edgeStyle=orthogonalEdgeStyle;curved=0;rounded=1;sketch=0;orthogonalLoop=1;jettySize=auto;html=1;fontSize=19;fontColor=#000000;strokeColor=#457B9D;fillColor=#A8DADC;" edge="1" parent="FC0IcF9SnpDUft-PJ-PU-1">
          <mxGeometry relative="1" as="geometry">
            <mxPoint x="170" y="330" as="sourcePoint" />
            <mxPoint x="350" y="330" as="targetPoint" />
          </mxGeometry>
        </mxCell>
        <mxCell id="FC0IcF9SnpDUft-PJ-PU-29" value="Admin业务服务" style="aspect=fixed;html=1;points=[];align=center;image;fontSize=12;image=img/lib/azure2/app_services/App_Service_Plans.svg;rounded=0;sketch=0;fontColor=#1D3557;strokeColor=#457B9D;fillColor=#A8DADC;labelBackgroundColor=none;" vertex="1" parent="FC0IcF9SnpDUft-PJ-PU-1">
          <mxGeometry x="415" y="310" width="40" height="40" as="geometry" />
        </mxCell>
        <mxCell id="FC0IcF9SnpDUft-PJ-PU-30" value="SIgn业务服务" style="aspect=fixed;html=1;points=[];align=center;image;fontSize=12;image=img/lib/azure2/app_services/App_Service_Plans.svg;rounded=0;sketch=0;fontColor=#1D3557;strokeColor=#457B9D;fillColor=#A8DADC;labelBackgroundColor=none;" vertex="1" parent="FC0IcF9SnpDUft-PJ-PU-1">
          <mxGeometry x="417" y="223" width="49" height="49" as="geometry" />
        </mxCell>
        <mxCell id="FC0IcF9SnpDUft-PJ-PU-31" value="" style="aspect=fixed;html=1;points=[];align=left;image;fontSize=12;image=img/lib/azure2/general/Workflow.svg;rotation=-90;labelPosition=right;verticalLabelPosition=middle;verticalAlign=top;horizontal=0;" vertex="1" parent="FC0IcF9SnpDUft-PJ-PU-1">
          <mxGeometry x="630" y="205" width="103.95" height="107" as="geometry" />
        </mxCell>
        <mxCell id="FC0IcF9SnpDUft-PJ-PU-32" value="Task业务服务" style="aspect=fixed;html=1;points=[];align=center;image;fontSize=12;image=img/lib/azure2/app_services/App_Service_Plans.svg;rounded=0;sketch=0;fontColor=#1D3557;strokeColor=#457B9D;fillColor=#A8DADC;labelBackgroundColor=none;" vertex="1" parent="FC0IcF9SnpDUft-PJ-PU-1">
          <mxGeometry x="505" y="146" width="40" height="40" as="geometry" />
        </mxCell>
        <mxCell id="FC0IcF9SnpDUft-PJ-PU-33" value="其他服务" style="aspect=fixed;html=1;points=[];align=center;image;fontSize=12;image=img/lib/azure2/app_services/App_Service_Plans.svg;rounded=0;sketch=0;fontColor=#1D3557;strokeColor=#457B9D;fillColor=#A8DADC;labelBackgroundColor=none;" vertex="1" parent="FC0IcF9SnpDUft-PJ-PU-1">
          <mxGeometry x="505" y="223" width="40" height="40" as="geometry" />
        </mxCell>
        <mxCell id="FC0IcF9SnpDUft-PJ-PU-34" value="" style="edgeStyle=orthogonalEdgeStyle;curved=0;rounded=1;sketch=0;orthogonalLoop=1;jettySize=auto;html=1;fontSize=19;fontColor=#000000;strokeColor=#457B9D;fillColor=#A8DADC;" edge="1" parent="FC0IcF9SnpDUft-PJ-PU-1">
          <mxGeometry relative="1" as="geometry">
            <mxPoint x="770" y="184" as="sourcePoint" />
            <mxPoint x="916" y="184" as="targetPoint" />
          </mxGeometry>
        </mxCell>
        <mxCell id="FC0IcF9SnpDUft-PJ-PU-35" value="通过AOP根据业务规则分配数据源" style="text;html=1;align=center;verticalAlign=middle;resizable=0;points=[];autosize=1;strokeColor=none;fillColor=none;fontColor=#000000;fontStyle=1;fontSize=9;" vertex="1" parent="FC0IcF9SnpDUft-PJ-PU-1">
          <mxGeometry x="603" y="184" width="200" height="20" as="geometry" />
        </mxCell>
        <mxCell id="FC0IcF9SnpDUft-PJ-PU-36" value="" style="shape=curlyBracket;whiteSpace=wrap;html=1;rounded=1;flipH=1;labelBackgroundColor=none;sketch=0;fontSize=19;fontColor=#000000;strokeColor=#000000;fillColor=none;" vertex="1" parent="FC0IcF9SnpDUft-PJ-PU-1">
          <mxGeometry x="575" y="140" width="52" height="235" as="geometry" />
        </mxCell>
        <mxCell id="FC0IcF9SnpDUft-PJ-PU-37" value="静态配置文件添加多数据源" style="text;html=1;align=center;verticalAlign=middle;resizable=0;points=[];autosize=1;strokeColor=none;fillColor=none;fontColor=#000000;fontStyle=1;fontSize=9;" vertex="1" parent="FC0IcF9SnpDUft-PJ-PU-1">
          <mxGeometry x="610" y="330" width="160" height="20" as="geometry" />
        </mxCell>
        <mxCell id="jZA_SXGNm3jzXFu0hKiR-1" value="&lt;div&gt;&lt;span style=&quot;font-size: 13px ; font-family: &amp;#34;larkhacksafarifont&amp;#34; , &amp;#34;larkemojifont&amp;#34; , &amp;#34;larkchinesequote&amp;#34; , , &amp;#34;blinkmacsystemfont&amp;#34; , &amp;#34;helvetica neue&amp;#34; , &amp;#34;arial&amp;#34; , &amp;#34;segoe ui&amp;#34; , &amp;#34;pingfang sc&amp;#34; , &amp;#34;microsoft yahei&amp;#34; , &amp;#34;hiragino sans gb&amp;#34; , sans-serif , &amp;#34;apple color emoji&amp;#34; , &amp;#34;segoe ui emoji&amp;#34; , &amp;#34;segoe ui symbol&amp;#34; , &amp;#34;noto color emoji&amp;#34;&quot;&gt;赋强创新思路&lt;/span&gt;&lt;span style=&quot;font-family: &amp;#34;larkhacksafarifont&amp;#34; , &amp;#34;larkemojifont&amp;#34; , &amp;#34;larkchinesequote&amp;#34; , , &amp;#34;blinkmacsystemfont&amp;#34; , &amp;#34;helvetica neue&amp;#34; , &amp;#34;arial&amp;#34; , &amp;#34;segoe ui&amp;#34; , &amp;#34;pingfang sc&amp;#34; , &amp;#34;microsoft yahei&amp;#34; , &amp;#34;hiragino sans gb&amp;#34; , sans-serif , &amp;#34;apple color emoji&amp;#34; , &amp;#34;segoe ui emoji&amp;#34; , &amp;#34;segoe ui symbol&amp;#34; , &amp;#34;noto color emoji&amp;#34;&quot;&gt;&lt;span style=&quot;font-size: 13px&quot;&gt;（目标开拓新思路）&lt;/span&gt;&lt;/span&gt;&lt;/div&gt;" style="shape=callout;whiteSpace=wrap;html=1;perimeter=calloutPerimeter;labelBackgroundColor=none;labelBorderColor=none;fontSize=14;fillColor=#A8DADC;strokeColor=#457B9D;fontColor=#1D3557;fontStyle=1" vertex="1" parent="1">
          <mxGeometry x="900" y="40" width="390" height="100" as="geometry" />
        </mxCell>
      </root>
    </mxGraphModel>
  </diagram>
</mxfile>
